# xmcd
#
# Track frame offsets:
# 150
# 13960
# 26735
# 43317
# 57350
# 70010
# 85632
# 101340
# 116260
# 132942
# 147160
# 162120
# 173865
# 192760
# 206377
#
# Disc length: 2925 seconds
#
#
# Revision: 0
# Processed by: cddbd v1.5.2PL0 Copyright (c) Steve Scherf et al.
# Submitted via: Nero 7, 11, 10, 0 
#
DISCID=c60b6b0f
DTITLE=Doc Johnson Blues Band - Doc Drops In
DYEAR=1996
DGENRE=Blues
TTITLE0=Doc Drops In
TTITLE1=Southside Of Town
TTITLE2=She's Real Fine
TTITLE3=Holdin' Out
TTITLE4=If She Was Any Better
TTITLE5=A Wink And A Wave
TTITLE6=Fast Talkin'
TTITLE7=Good Enough
TTITLE8=The Trouble I'm In
TTITLE9=Hey, Hey, Hey
TTITLE10=Eyes On The Road
TTITLE11=Break The Ice
TTITLE12=Nervous Guy
TTITLE13=I Got A Feeling
TTITLE14=Never Shake Your Baby
EXTD=
EXTT0=Doc Drops In
EXTT1=Southside Of Town
EXTT2=She's Real Fine
EXTT3=Holdin' Out
EXTT4=If She Was Any Better
EXTT5=A Wink And A Wave
EXTT6=Fast Talkin'
EXTT7=Good Enough
EXTT8=The Trouble I'm In
EXTT9=Hey, Hey, Hey
EXTT10=Eyes On The Road
EXTT11=Break The Ice
EXTT12=Nervous Guy
EXTT13=I Got A Feeling
EXTT14=Never Shake Your Baby
PLAYORDER=
